<svg width="32" height="32" viewBox="0 0 32 32" fill="none" xmlns="http://www.w3.org/2000/svg">
<path fill-rule="evenodd" clip-rule="evenodd" d="M19.18 20.5947C17.3828 22.0306 15.1041 22.7238 12.8118 22.5321C10.5195 22.3403 8.38762 21.2781 6.85402 19.5636C5.32042 17.8491 4.50152 15.6125 4.5655 13.3131C4.62948 11.0136 5.57149 8.826 7.19805 7.19943C8.82462 5.57287 11.0123 4.63086 13.3117 4.56688C15.6111 4.5029 17.8478 5.3218 19.5622 6.8554C21.2767 8.389 22.3389 10.5209 22.5307 12.8132C22.7224 15.1055 22.0292 17.3842 20.5933 19.1813L27.468 26.0547C27.5662 26.1462 27.645 26.2566 27.6997 26.3793C27.7543 26.5019 27.7837 26.6344 27.7861 26.7686C27.7884 26.9029 27.7637 27.0363 27.7135 27.1608C27.6632 27.2853 27.5883 27.3984 27.4933 27.4934C27.3984 27.5883 27.2853 27.6632 27.1608 27.7135C27.0362 27.7638 26.9029 27.7885 26.7686 27.7861C26.6343 27.7838 26.5019 27.7544 26.3792 27.6997C26.2566 27.6451 26.1462 27.5662 26.0546 27.468L19.18 20.5947ZM8.61195 18.512C7.63334 17.5333 6.96683 16.2864 6.69664 14.929C6.42645 13.5716 6.56472 12.1646 7.09397 10.8857C7.62322 9.60689 8.5197 8.51363 9.67011 7.74414C10.8205 6.97464 12.1732 6.56344 13.5572 6.56251C14.9413 6.56158 16.2945 6.97096 17.446 7.7389C18.5974 8.50685 19.4954 9.5989 20.0263 10.877C20.5573 12.1552 20.6975 13.562 20.4291 14.9198C20.1608 16.2776 19.4959 17.5253 18.5186 18.5053L18.512 18.512L18.5053 18.5173C17.1921 19.8275 15.4125 20.5628 13.5575 20.5618C11.7025 20.5608 9.92375 19.8236 8.61195 18.512Z" fill="#FB9042"/>
</svg>
