<svg width="28" height="23" viewBox="0 0 28 23" fill="none" xmlns="http://www.w3.org/2000/svg">
<g filter="url(#filter0_d_1_21)">
<path d="M23.625 0.46875H4.375C3.96889 0.46875 3.57941 0.630078 3.29224 0.917243C3.00508 1.20441 2.84375 1.59389 2.84375 2V19.5C2.84217 19.7919 2.9248 20.0781 3.08173 20.3243C3.23867 20.5705 3.46326 20.7662 3.72859 20.888C3.93115 20.982 4.1517 21.0309 4.375 21.0312C4.73573 21.0314 5.08473 20.9031 5.35937 20.6692L5.36594 20.6637L8.99391 17.5312H23.625C24.0311 17.5312 24.4206 17.3699 24.7078 17.0828C24.9949 16.7956 25.1562 16.4061 25.1562 16V2C25.1562 1.59389 24.9949 1.20441 24.7078 0.917243C24.4206 0.630078 24.0311 0.46875 23.625 0.46875ZM23.8438 16C23.8438 16.058 23.8207 16.1137 23.7797 16.1547C23.7387 16.1957 23.683 16.2188 23.625 16.2188H8.75C8.59255 16.2188 8.44038 16.2755 8.32125 16.3784L4.51281 19.6673C4.48088 19.6933 4.4423 19.7096 4.40148 19.7146C4.36066 19.7196 4.31927 19.713 4.28205 19.6955C4.24482 19.678 4.21328 19.6504 4.19103 19.6158C4.16878 19.5813 4.15672 19.5411 4.15625 19.5V2C4.15625 1.94198 4.1793 1.88634 4.22032 1.84532C4.26134 1.8043 4.31698 1.78125 4.375 1.78125H23.625C23.683 1.78125 23.7387 1.8043 23.7797 1.84532C23.8207 1.88634 23.8438 1.94198 23.8438 2V16Z" fill="#FB9042"/>
</g>
<defs>
<filter id="filter0_d_1_21" x="-1.15627" y="0.46875" width="30.3125" height="28.5625" filterUnits="userSpaceOnUse" color-interpolation-filters="sRGB">
<feFlood flood-opacity="0" result="BackgroundImageFix"/>
<feColorMatrix in="SourceAlpha" type="matrix" values="0 0 0 0 0 0 0 0 0 0 0 0 0 0 0 0 0 0 127 0" result="hardAlpha"/>
<feOffset dy="4"/>
<feGaussianBlur stdDeviation="2"/>
<feComposite in2="hardAlpha" operator="out"/>
<feColorMatrix type="matrix" values="0 0 0 0 0 0 0 0 0 0 0 0 0 0 0 0 0 0 0.25 0"/>
<feBlend mode="normal" in2="BackgroundImageFix" result="effect1_dropShadow_1_21"/>
<feBlend mode="normal" in="SourceGraphic" in2="effect1_dropShadow_1_21" result="shape"/>
</filter>
</defs>
</svg>
