<svg width="24" height="24" viewBox="0 0 24 24" fill="none" xmlns="http://www.w3.org/2000/svg">
<path d="M20.415 4.24C20.985 4.24 21.415 4.74 21.185 5.67L18.395 18.82C18.2 19.755 17.635 19.98 16.855 19.545L10.2 14.63C10.1742 14.6115 10.1532 14.5871 10.1387 14.5588C10.1242 14.5306 10.1166 14.4993 10.1166 14.4675C10.1166 14.4357 10.1242 14.4044 10.1387 14.3762C10.1532 14.3479 10.1742 14.3235 10.2 14.305L17.885 7.365C18.235 7.055 17.81 6.905 17.35 7.185L7.705 13.27C7.67575 13.2891 7.64254 13.3012 7.60788 13.3056C7.57323 13.3099 7.53805 13.3063 7.505 13.295L3.41 12C2.5 11.735 2.5 11.11 3.615 10.665L20 4.345C20.1301 4.28316 20.2711 4.24749 20.415 4.24Z" stroke="#FB9042" stroke-linecap="round" stroke-linejoin="round"/>
</svg>
